# xmcd
#
# Track frame offsets:
#        150
#        12885
#        28557
#        39895
#        53597
#        68957
#        81752
#        94242
#        109802
#        125165
#        140440
#        154445
#        168660
#        178457
#        190115
#        229135
#        244177
#        258645
#
# Disc length: 3651 seconds
#
# Revision: 6
# Processed by: cddbd v1.5.1PL0 Copyright (c) Steve Scherf et al.
# Submitted via: ExactAudioCopy v0.95b2
#
DISCID=fe0e4112
DTITLE=Benny Goodman - THE BEST OF BENNY GOODMAN
DYEAR=2002
DGENRE=Swing
TTITLE0=AFTER YOU'VE GONE
TTITLE1=BODY AND SOUL
TTITLE2=CHINA BOY
TTITLE3=OH, LADY BE GOOD
TTITLE4=MOONGLOW
TTITLE5=STOMPIN' AT THE SAVOY
TTITLE6=AVALON
TTITLE7=THE MAN I LOVE
TTITLE8=BEI MIR BIST DU SCHON (PART 1)
TTITLE9=BEI MIR BIST DU SCHON (PART 2)
TTITLE10=SWEET GEORGIA BROWN
TTITLE11=KING PORTER STOMP
TTITLE12=I'VE FOUND A NEW BABY
TTITLE13=BUGLE CALL RAG
TTITLE14=SING, SING, SING (PART 1&2)
TTITLE15=DON'T BE THAT WAY
TTITLE16=AND THE ANGELS SING
TTITLE17=GOODBYE
EXTD=YEAR: 2001
EXTT0=
EXTT1=
EXTT2=
EXTT3=
EXTT4=
EXTT5=
EXTT6=
EXTT7=
EXTT8=
EXTT9=
EXTT10=
EXTT11=
EXTT12=
EXTT13=
EXTT14=
EXTT15=
EXTT16=
EXTT17=
PLAYORDER=
